HIERARCHY
ROOT mixamorig:Hips
{
	OFFSET 0.000000 201.639420 0.000000
	CHANNELS 6 Xposition Yposition Zposition Xrotation Yrotation Zrotation
	JOINT mixamorig:Spine
	{
		OFFSET 0.006200 19.524994 -2.481800
		CHANNELS 3 Xrotation Yrotation Zrotation
		JOINT mixamorig:Spine1
		{
			OFFSET -0.000900 22.835007 -2.825400
			CHANNELS 3 Xrotation Yrotation Zrotation
			JOINT mixamorig:Spine2
			{
				OFFSET -0.020600 26.552490 -3.193300
				CHANNELS 3 Xrotation Yrotation Zrotation
				JOINT mixamorig:Neck
				{
					OFFSET -0.060000 30.701813 1.352200
					CHANNELS 3 Xrotation Yrotation Zrotation
					JOINT mixamorig:Head
					{
						OFFSET -0.087200 22.547607 3.670900
						CHANNELS 3 Xrotation Yrotation Zrotation
						JOINT mixamorig:HeadTop_End
						{
							OFFSET -0.830600 40.355194 7.893500
							CHANNELS 3 Xrotation Yrotation Zrotation
							End Site
							{
								OFFSET 0.000000 30.592346 0.000000
							}
						}
						JOINT mixamorig:RightEye
						{
							OFFSET -6.302100 18.118591 16.197100
							CHANNELS 3 Xrotation Yrotation Zrotation
							End Site
							{
								OFFSET 0.000000 30.592346 0.000000
							}
						}
						JOINT mixamorig:LeftEye
						{
							OFFSET 6.741500 18.382690 16.401899
							CHANNELS 3 Xrotation Yrotation Zrotation
							End Site
							{
								OFFSET 0.000000 30.592346 0.000000
							}
						}
					}
				}
				JOINT mixamorig:LeftShoulder
				{
					OFFSET 11.924900 18.230499 1.425400
					CHANNELS 3 Xrotation Yrotation Zrotation
					JOINT mixamorig:LeftArm
					{
						OFFSET 25.435989 -0.697632 -5.229300
						CHANNELS 3 Xrotation Yrotation Zrotation
						JOINT mixamorig:LeftForeArm
						{
							OFFSET 54.684776 0.000000 0.000000
							CHANNELS 3 Xrotation Yrotation Zrotation
							JOINT mixamorig:LeftHand
							{
								OFFSET 55.098175 0.000000 0.000000
								CHANNELS 3 Xrotation Yrotation Zrotation
								JOINT mixamorig:LeftHandMiddle1
								{
									OFFSET 23.369751 0.000000 0.000000
									CHANNELS 3 Xrotation Yrotation Zrotation
									JOINT mixamorig:LeftHandMiddle2
									{
										OFFSET 6.378677 0.000000 0.000000
										CHANNELS 3 Xrotation Yrotation Zrotation
										JOINT mixamorig:LeftHandMiddle3
										{
											OFFSET 6.148331 0.000000 0.000000
											CHANNELS 3 Xrotation Yrotation Zrotation
											JOINT mixamorig:LeftHandMiddle4
											{
												OFFSET 6.582504 0.000000 0.000000
												CHANNELS 3 Xrotation Yrotation Zrotation
												End Site
												{
													OFFSET -1.168900 6.395691 1.028606
												}
											}
										}
									}
								}
								JOINT mixamorig:LeftHandThumb1
								{
									OFFSET 7.235672 -3.848206 5.434273
									CHANNELS 3 Xrotation Yrotation Zrotation
									JOINT mixamorig:LeftHandThumb2
									{
										OFFSET 6.568451 -3.792297 3.792300
										CHANNELS 3 Xrotation Yrotation Zrotation
										JOINT mixamorig:LeftHandThumb3
										{
											OFFSET 6.063080 -3.500519 3.500518
											CHANNELS 3 Xrotation Yrotation Zrotation
											JOINT mixamorig:LeftHandThumb4
											{
												OFFSET 4.793182 -2.767334 2.767349
												CHANNELS 3 Xrotation Yrotation Zrotation
												End Site
												{
													OFFSET 0.101639 6.054260 1.275483
												}
											}
										}
									}
								}
								JOINT mixamorig:LeftHandIndex1
								{
									OFFSET 23.101074 -0.309540 4.992809
									CHANNELS 3 Xrotation Yrotation Zrotation
									JOINT mixamorig:LeftHandIndex2
									{
										OFFSET 6.226883 0.000000 0.000000
										CHANNELS 3 Xrotation Yrotation Zrotation
										JOINT mixamorig:LeftHandIndex3
										{
											OFFSET 6.094330 0.000000 0.000000
											CHANNELS 3 Xrotation Yrotation Zrotation
											JOINT mixamorig:LeftHandIndex4
											{
												OFFSET 5.482605 0.000000 0.000000
												CHANNELS 3 Xrotation Yrotation Zrotation
												End Site
												{
													OFFSET -1.427902 5.233032 0.797164
												}
											}
										}
									}
								}
								JOINT mixamorig:LeftHandRing1
								{
									OFFSET 22.299240 0.021149 -3.964172
									CHANNELS 3 Xrotation Yrotation Zrotation
									JOINT mixamorig:LeftHandRing2
									{
										OFFSET 6.321869 0.000000 0.000000
										CHANNELS 3 Xrotation Yrotation Zrotation
										JOINT mixamorig:LeftHandRing3
										{
											OFFSET 5.899796 0.000000 0.000000
											CHANNELS 3 Xrotation Yrotation Zrotation
											JOINT mixamorig:LeftHandRing4
											{
												OFFSET 6.517899 0.000000 0.000000
												CHANNELS 3 Xrotation Yrotation Zrotation
												End Site
												{
													OFFSET -1.637299 6.232208 0.980890
												}
											}
										}
									}
								}
								JOINT mixamorig:LeftHandPinky1
								{
									OFFSET 20.463791 -0.302338 -8.562233
									CHANNELS 3 Xrotation Yrotation Zrotation
									JOINT mixamorig:LeftHandPinky2
									{
										OFFSET 6.908646 0.000000 0.000000
										CHANNELS 3 Xrotation Yrotation Zrotation
										JOINT mixamorig:LeftHandPinky3
										{
											OFFSET 4.622849 0.000000 0.000000
											CHANNELS 3 Xrotation Yrotation Zrotation
											JOINT mixamorig:LeftHandPinky4
											{
												OFFSET 5.216080 0.000000 0.000000
												CHANNELS 3 Xrotation Yrotation Zrotation
												End Site
												{
													OFFSET -0.606308 5.116241 0.814926
												}
											}
										}
									}
								}
							}
						}
					}
				}
				JOINT mixamorig:RightShoulder
				{
					OFFSET -12.001300 18.284088 1.348900
					CHANNELS 3 Xrotation Yrotation Zrotation
					JOINT mixamorig:RightArm
					{
						OFFSET -25.308500 -0.751312 -5.164599
						CHANNELS 3 Xrotation Yrotation Zrotation
						JOINT mixamorig:RightForeArm
						{
							OFFSET -54.684429 0.000000 0.000000
							CHANNELS 3 Xrotation Yrotation Zrotation
							JOINT mixamorig:RightHand
							{
								OFFSET -55.150291 0.000000 0.000000
								CHANNELS 3 Xrotation Yrotation Zrotation
								JOINT mixamorig:RightHandMiddle1
								{
									OFFSET -23.317566 0.000000 0.000000
									CHANNELS 3 Xrotation Yrotation Zrotation
									JOINT mixamorig:RightHandMiddle2
									{
										OFFSET -6.378403 0.000000 0.000000
										CHANNELS 3 Xrotation Yrotation Zrotation
										JOINT mixamorig:RightHandMiddle3
										{
											OFFSET -6.148193 0.000000 0.000000
											CHANNELS 3 Xrotation Yrotation Zrotation
											JOINT mixamorig:RightHandMiddle4
											{
												OFFSET -6.583389 0.000000 0.000000
												CHANNELS 3 Xrotation Yrotation Zrotation
												End Site
												{
													OFFSET 1.171692 6.395905 1.029786
												}
											}
										}
									}
								}
								JOINT mixamorig:RightHandThumb1
								{
									OFFSET -7.190521 -3.860474 5.435846
									CHANNELS 3 Xrotation Yrotation Zrotation
									JOINT mixamorig:RightHandThumb2
									{
										OFFSET -6.567429 -3.791718 3.791708
										CHANNELS 3 Xrotation Yrotation Zrotation
										JOINT mixamorig:RightHandThumb3
										{
											OFFSET -6.062469 -3.500153 3.500166
											CHANNELS 3 Xrotation Yrotation Zrotation
											JOINT mixamorig:RightHandThumb4
											{
												OFFSET -4.792618 -2.767029 2.767022
												CHANNELS 3 Xrotation Yrotation Zrotation
												End Site
												{
													OFFSET -0.100327 6.053253 1.276754
												}
											}
										}
									}
								}
								JOINT mixamorig:RightHandIndex1
								{
									OFFSET -23.048981 -0.310791 4.992554
									CHANNELS 3 Xrotation Yrotation Zrotation
									JOINT mixamorig:RightHandIndex2
									{
										OFFSET -6.227539 0.000000 0.000000
										CHANNELS 3 Xrotation Yrotation Zrotation
										JOINT mixamorig:RightHandIndex3
										{
											OFFSET -6.095047 0.000000 0.000000
											CHANNELS 3 Xrotation Yrotation Zrotation
											JOINT mixamorig:RightHandIndex4
											{
												OFFSET -5.484772 0.000000 0.000000
												CHANNELS 3 Xrotation Yrotation Zrotation
												End Site
												{
													OFFSET 1.420593 5.237305 0.797056
												}
											}
										}
									}
								}
								JOINT mixamorig:RightHandRing1
								{
									OFFSET -22.246323 0.020569 -3.963762
									CHANNELS 3 Xrotation Yrotation Zrotation
									JOINT mixamorig:RightHandRing2
									{
										OFFSET -6.322128 0.000000 0.000000
										CHANNELS 3 Xrotation Yrotation Zrotation
										JOINT mixamorig:RightHandRing3
										{
											OFFSET -5.900024 0.000000 0.000000
											CHANNELS 3 Xrotation Yrotation Zrotation
											JOINT mixamorig:RightHandRing4
											{
												OFFSET -6.518356 0.000000 0.000000
												CHANNELS 3 Xrotation Yrotation Zrotation
												End Site
												{
													OFFSET 1.636398 6.232697 0.982186
												}
											}
										}
									}
								}
								JOINT mixamorig:RightHandPinky1
								{
									OFFSET -20.411011 -0.303314 -8.561701
									CHANNELS 3 Xrotation Yrotation Zrotation
									JOINT mixamorig:RightHandPinky2
									{
										OFFSET -6.907349 0.000000 0.000000
										CHANNELS 3 Xrotation Yrotation Zrotation
										JOINT mixamorig:RightHandPinky3
										{
											OFFSET -4.623840 0.000000 0.000000
											CHANNELS 3 Xrotation Yrotation Zrotation
											JOINT mixamorig:RightHandPinky4
											{
												OFFSET -5.218353 0.000000 0.000000
												CHANNELS 3 Xrotation Yrotation Zrotation
												End Site
												{
													OFFSET 0.602097 5.118835 0.816273
												}
											}
										}
									}
								}
							}
						}
					}
				}
			}
		}
	}
	JOINT mixamorig:LeftUpLeg
	{
		OFFSET 18.168400 -13.561905 -0.039000
		CHANNELS 3 Xrotation Yrotation Zrotation
		JOINT mixamorig:LeftLeg
		{
			OFFSET 0.577358 -80.825211 -3.695000
			CHANNELS 3 Xrotation Yrotation Zrotation
			JOINT mixamorig:LeftFoot
			{
				OFFSET -0.577356 -83.370262 -6.520700
				CHANNELS 3 Xrotation Yrotation Zrotation
				JOINT mixamorig:LeftToeBase
				{
					OFFSET 0.750401 -20.798306 25.135401
					CHANNELS 3 Xrotation Yrotation Zrotation
					JOINT mixamorig:LeftToe_End
					{
						OFFSET -0.000500 0.001200 19.917799
						CHANNELS 3 Xrotation Yrotation Zrotation
						End Site
						{
							OFFSET 0.000000 19.917805 0.000000
						}
					}
				}
			}
		}
	}
	JOINT mixamorig:RightUpLeg
	{
		OFFSET -18.162500 -13.585098 -0.041000
		CHANNELS 3 Xrotation Yrotation Zrotation
		JOINT mixamorig:RightLeg
		{
			OFFSET -0.595024 -80.945297 -3.631900
			CHANNELS 3 Xrotation Yrotation Zrotation
			JOINT mixamorig:RightFoot
			{
				OFFSET 0.595024 -83.218193 -6.561200
				CHANNELS 3 Xrotation Yrotation Zrotation
				JOINT mixamorig:RightToeBase
				{
					OFFSET -0.753601 -20.807106 25.115000
					CHANNELS 3 Xrotation Yrotation Zrotation
					JOINT mixamorig:RightToe_End
					{
						OFFSET 0.000299 0.001700 19.918200
						CHANNELS 3 Xrotation Yrotation Zrotation
						End Site
						{
							OFFSET 0.000000 19.918203 0.000000
						}
					}
				}
			}
		}
	}
}
MOTION
Frames: 5
Frame Time: 0.033333
-0.168218 195.396713 0.925426 6.393858 1.804769 1.042859 5.619711 5.536885 -1.550834 0.385216 1.524075 -1.053133 0.375578 1.532048 -1.063668 -3.585709 6.802029 -5.670053 -22.733962 66.916914 4.154689 0.000000 0.000000 -0.000000 0.000000 0.000000 -0.000000 0.000000 0.000000 -0.000000 0.511036 -6.002062 -11.691848 12.075648 -29.277029 -59.400482 -41.926624 -28.373987 -15.470322 -6.798459 20.517902 9.616590 8.718217 0.512779 -23.906929 0.232915 2.231726 -12.878988 -0.379144 1.235357 -3.908871 -0.000000 0.000000 -0.000002 46.385287 -9.591962 30.230499 -1.712270 23.028003 -6.196354 -25.230142 -32.356573 21.696555 -0.000001 -0.000001 -0.000002 -0.288562 1.183866 -18.969406 0.396599 2.120654 -21.182841 0.012467 0.382010 -3.730631 0.000000 -0.000000 -0.000000 0.906130 11.507411 -15.898891 -1.837819 2.954019 -34.817972 -2.711796 1.192123 -14.623090 0.000000 0.000001 -0.000001 7.985108 16.921647 -14.016193 0.914349 3.144554 -32.418666 0.914358 3.144586 -32.418666 -0.000002 -0.000001 0.000002 0.154215 11.293295 15.738559 21.160542 27.025233 69.210601 -47.070020 20.858120 2.954404 -11.630298 -1.458397 2.330887 2.350629 -6.797448 16.190513 0.066581 -0.785498 9.689214 0.001403 -0.114577 1.406672 0.000001 0.000001 -0.000001 0.204606 9.460010 -16.435795 0.099127 -6.535996 -0.165325 4.627659 -0.659767 0.442297 0.000000 -0.000000 0.000001 0.187177 -4.140427 5.426712 0.089239 -0.908255 11.222035 0.123634 1.067071 -13.217316 -0.000000 0.000000 0.000001 5.748598 -7.109456 20.024549 0.044907 -0.645846 7.953982 0.083797 -0.880356 10.873102 -0.000001 0.000001 -0.000001 -14.030986 -39.653353 0.009778 0.457767 -2.015340 25.592403 0.457782 -2.015350 25.592413 0.000003 -0.000002 0.000001 -19.493070 2.484257 -0.285235 27.977713 -4.326909 -0.553801 -14.820775 -0.327594 1.247920 -2.580222 2.212820 -1.845415 0.000000 -0.000000 -0.000000 -12.392310 -12.345676 2.928760 23.569014 -0.887852 -2.588227 -17.948702 0.534513 -2.668722 -2.908003 2.719861 -2.156029 0.000000 -0.000000 -0.000000 
-0.325268 195.443710 1.402845 6.021599 3.085440 0.722551 5.774146 5.599582 -1.716453 0.439773 1.547220 -1.075614 0.429686 1.555474 -1.086938 -3.508497 6.362778 -5.615876 -23.419906 62.493963 3.590831 -0.000000 0.000001 -0.000000 -0.000000 0.000001 -0.000000 -0.000000 0.000001 -0.000000 0.511627 -5.882453 -11.734003 12.442545 -29.157299 -59.338484 -39.746889 -30.217146 -15.815904 -6.459753 21.579568 8.484401 8.274546 0.132866 -24.919184 0.253644 2.283348 -13.405156 -0.367942 1.290772 -4.417059 -0.000000 -0.000001 0.000001 43.139092 -9.045526 30.788372 0.899081 21.377811 -7.560521 -25.321244 -31.973775 20.595582 0.000002 0.000002 -0.000006 -0.759893 0.618842 -18.802133 0.402656 2.136197 -21.345832 0.013759 0.401354 -3.919849 -0.000000 -0.000000 0.000000 0.540114 10.949628 -15.613534 -1.800149 3.028064 -35.359244 -2.688461 1.271648 -15.172714 -0.000002 0.000001 -0.000002 7.299907 15.749055 -13.635063 0.899398 3.120931 -32.145076 0.894936 3.113832 -32.062834 -0.000001 -0.000000 0.000001 0.191109 11.209589 15.414330 21.319812 27.374355 70.402366 -48.634287 21.521054 2.334899 -11.608489 -2.120675 3.284212 2.063284 -6.477166 17.266086 0.074438 -0.830221 10.246748 0.002627 -0.156723 1.924214 0.000000 0.000000 -0.000002 -2.079903 9.160830 -17.920063 2.259840 -4.902520 1.164784 5.010778 -0.782722 1.332307 0.000001 -0.000001 -0.000002 -0.285867 -3.566636 5.276095 0.092341 -0.923750 11.416060 0.118831 1.046416 -12.956924 -0.000000 -0.000001 -0.000002 5.387841 -6.601779 19.684011 0.052874 -0.700503 8.632190 0.092730 -0.925642 11.439840 -0.000000 0.000002 -0.000007 -14.374367 -38.364165 0.258541 0.450737 -2.000578 25.391308 0.446284 -1.991165 25.263336 -0.000002 -0.000001 -0.000001 -19.122803 1.932312 -0.299202 28.123295 -5.156060 -0.224225 -15.106765 -0.263040 1.236882 -2.477286 2.194204 -2.264748 0.000000 0.000000 0.000000 -11.475561 -12.305365 3.277918 23.021508 -2.117732 -2.208026 -17.935503 0.672079 -3.034885 -2.962881 2.645737 -2.124118 0.000000 0.000000 0.000000 
-0.465802 195.249023 1.767508 5.679916 4.706566 0.314568 5.942011 5.355334 -1.720384 0.492175 1.481873 -1.056788 0.482579 1.490068 -1.068009 -3.346853 5.812391 -5.392784 -23.103359 56.905745 2.669090 0.000000 -0.000001 -0.000001 0.000000 -0.000001 -0.000001 0.000000 -0.000001 -0.000001 0.472751 -6.272571 -12.319829 13.344550 -28.194778 -58.985111 -38.568466 -32.263976 -16.568309 -6.169314 22.018856 7.543321 7.715176 -0.243192 -25.778066 0.269665 2.317919 -13.871243 -0.359248 1.326202 -4.833532 -0.000001 0.000000 0.000003 39.637814 -8.774849 31.294902 3.965981 19.538123 -9.057919 -25.357800 -31.453134 19.154748 0.000001 -0.000000 0.000000 -1.257035 -0.013121 -18.404436 0.405065 2.142351 -21.410393 0.014732 0.415309 -4.056334 -0.000001 0.000001 -0.000002 0.085128 10.229952 -15.200974 -1.744040 3.086062 -35.760798 -2.644159 1.338972 -15.599191 -0.000001 -0.000001 0.000001 6.488346 14.343344 -13.246535 0.876495 3.084223 -31.721833 0.860126 3.057632 -31.416162 0.000002 -0.000000 0.000003 0.235030 10.904932 15.132988 21.416587 27.552334 71.101777 -47.605927 22.240401 1.216854 -11.531971 -2.224084 3.410282 1.705512 -6.092583 18.229770 0.082668 -0.874519 10.799956 0.003961 -0.192417 2.362733 0.000000 0.000000 0.000002 -4.444204 9.143030 -19.095744 4.739392 -3.116718 2.728728 5.434639 -1.331677 2.356417 0.000000 0.000000 -0.000001 -0.775344 -2.902649 4.948808 0.094752 -0.935615 11.564727 0.112895 1.020277 -12.627767 -0.000001 -0.000000 -0.000001 4.918999 -5.982491 19.198871 0.062695 -0.762378 9.401389 0.100416 -0.962834 11.906130 -0.000001 -0.000000 0.000003 -14.541461 -36.752148 0.830060 0.442886 -1.983940 25.165151 0.426539 -1.948822 24.689327 -0.000001 0.000003 -0.000002 -19.193337 1.611707 -0.303331 29.193209 -6.140263 0.427947 -16.249705 0.004119 1.135349 -2.315733 2.349334 -3.566130 -0.000000 -0.000000 0.000000 -10.875854 -12.558396 3.703392 23.006879 -3.509295 -2.006683 -18.323444 0.770607 -3.192147 -2.831440 2.535233 -2.041117 0.000000 0.000000 0.000000 
-0.590784 194.685547 1.846972 5.487197 6.362666 -0.150005 6.100950 4.729742 -1.682906 0.517525 1.311182 -1.021562 0.509116 1.319669 -1.031494 -3.190801 5.196198 -5.025784 -22.652748 50.105154 2.931698 -0.000000 -0.000001 0.000000 -0.000000 -0.000001 0.000000 -0.000000 -0.000001 0.000000 0.430371 -6.690702 -12.845211 13.858243 -26.821613 -58.961506 -38.995182 -33.292326 -17.319300 -6.109693 21.394179 7.287680 7.093215 -0.576663 -25.855608 0.270822 2.313919 -14.005981 -0.354388 1.316399 -4.889463 -0.000000 -0.000000 -0.000000 36.502197 -9.362001 31.802331 7.348599 17.587867 -10.605259 -25.364299 -30.651707 16.980909 0.000001 -0.000003 -0.000002 -1.703018 -0.710429 -17.389201 0.400620 2.130989 -21.291224 0.014728 0.415236 -4.055657 -0.000001 0.000001 -0.000002 -0.435089 9.388631 -14.397911 -1.688261 3.092087 -35.755040 -2.586681 1.349019 -15.636815 -0.000002 -0.000000 -0.000002 5.674265 12.914465 -12.924583 0.838317 3.021683 -31.005056 0.803210 2.962569 -30.332317 -0.000001 0.000001 -0.000001 0.240460 10.765549 15.210304 21.236803 26.473234 71.215254 -44.862615 23.386238 0.683314 -11.348317 -2.223353 2.744783 1.260172 -5.629294 18.449417 0.086749 -0.895643 11.064141 0.004277 -0.199802 2.453433 0.000001 -0.000001 0.000002 -6.310740 9.862201 -19.641223 7.430375 -1.281432 4.460015 6.106788 -2.248646 3.860790 0.000002 0.000001 0.000001 -1.228196 -2.166443 4.058307 0.095060 -0.937122 11.583615 0.107345 0.995183 -12.312194 -0.000001 -0.000001 -0.000001 4.381785 -5.319922 18.314298 0.070867 -0.810193 9.996918 0.102062 -0.970613 12.003806 0.000000 -0.000000 -0.000003 -14.460653 -35.031337 1.683885 0.429368 -1.954960 24.772154 0.394349 -1.877246 23.724870 -0.000001 0.000002 -0.000004 -19.938681 1.087001 -0.128128 31.143535 -5.975051 0.945122 -17.680428 0.357021 0.749041 -1.969531 2.119510 -3.355718 0.000000 -0.000000 0.000000 -11.172957 -13.271208 4.405524 24.326550 -4.524953 -2.700572 -19.514950 0.736628 -2.923569 -2.416830 2.217889 -1.795013 0.000000 -0.000001 -0.000000 
-0.868854 193.588837 1.533104 5.281847 7.634546 -0.519580 6.690710 3.989905 -1.859348 0.635718 1.117150 -1.029656 0.628340 1.127141 -1.038399 -3.137090 4.218950 -4.511577 -23.250604 39.173017 4.185158 0.000000 0.000001 -0.000001 0.000000 0.000001 -0.000001 0.000000 0.000001 -0.000001 0.364177 -6.922837 -13.882906 13.910558 -25.331230 -58.103661 -40.840180 -34.020670 -18.647776 -6.002724 23.016778 7.059424 6.489966 -0.866772 -24.546368 0.248120 2.244056 -13.535397 -0.356813 1.232715 -4.322708 -0.000000 -0.000000 0.000004 34.230220 -11.094824 32.293257 10.825125 15.629175 -12.074401 -25.343108 -29.445130 13.755283 0.000001 0.000001 0.000000 -1.990037 -1.454353 -15.400579 0.386175 2.093580 -20.899377 0.013087 0.391413 -3.822595 -0.000001 0.000001 -0.000001 -0.965376 8.488415 -12.972281 -1.648123 3.013968 -35.089557 -2.524758 1.266468 -15.031761 -0.000000 0.000000 0.000001 4.994194 11.727967 -12.730036 0.779891 2.922392 -29.878201 0.721667 2.818765 -28.715457 -0.000003 0.000001 -0.000002 0.174908 11.001679 15.950845 20.539613 23.834437 70.711835 -41.953648 25.627543 1.581235 -11.079126 -2.315701 1.708548 0.737701 -5.058345 17.313309 0.082372 -0.872944 10.780249 0.002647 -0.157315 1.931497 -0.000001 0.000000 0.000001 -7.260078 11.545673 -19.467979 10.168350 0.492992 6.231766 7.262730 -3.383113 6.162402 0.000002 0.000000 0.000001 -1.560661 -1.396531 2.242130 0.091697 -0.920559 11.376086 0.104086 0.980142 -12.123189 0.000001 0.000000 0.000000 3.844416 -4.695174 16.807320 0.072793 -0.821045 10.132258 0.093283 -0.928378 11.474125 -0.000001 0.000001 -0.000003 -14.090026 -33.479367 2.722900 0.405986 -1.903499 24.077663 0.347995 -1.768058 22.267325 -0.000001 -0.000001 0.000003 -21.367721 -0.083522 0.273843 33.870690 -4.834098 0.618673 -18.522881 0.502367 0.420876 -0.993229 1.554993 -2.845007 0.000000 0.000001 -0.000000 -12.907785 -12.810945 5.343936 27.775839 -6.608790 -3.698884 -21.255214 0.963363 -3.611186 -2.440738 1.874545 -1.606659 0.000000 -0.000000 0.000000 
